<svg xmlns="http://www.w3.org/2000/svg" width="20" height="20"><path fill="#fff" d="M10 10.123c-1.397 0-2.589-.495-3.577-1.485-.988-.99-1.482-2.18-1.482-3.571 0-1.399.494-2.593 1.482-3.583C7.411.494 8.603 0 10 0c1.397 0 2.589.495 3.577 1.484.988.99 1.482 2.184 1.482 3.583 0 1.391-.494 2.582-1.482 3.571-.988.99-2.18 1.485-3.577 1.485zm0-7.556a2.39 2.39 0 0 0-1.755.731 2.412 2.412 0 0 0-.73 1.769c0 .684.243 1.27.73 1.758a2.39 2.39 0 0 0 1.755.73 2.39 2.39 0 0 0 1.755-.73c.487-.488.73-1.074.73-1.758 0-.692-.243-1.282-.73-1.769A2.39 2.39 0 0 0 10 2.567zm5.828 8.17c.096.2.152.385.167.552.015.167-.002.318-.05.452a1.256 1.256 0 0 1-.296.43c-.148.152-.306.29-.473.413-.167.122-.396.277-.685.463-.855.543-2.025.893-3.51 1.049l.813.804 2.975 2.98c.223.23.334.505.334.825 0 .32-.111.592-.334.815l-.134.145c-.23.223-.505.335-.824.335-.32 0-.594-.112-.825-.335-.497-.506-1.49-1.503-2.975-2.99l-2.975 2.99c-.23.223-.505.335-.824.335-.32 0-.591-.112-.814-.335l-.134-.145a1.092 1.092 0 0 1-.345-.815c0-.32.115-.595.345-.826l3.778-3.783c-1.508-.156-2.686-.506-3.533-1.05-.29-.185-.518-.34-.685-.462a3.806 3.806 0 0 1-.473-.413 1.256 1.256 0 0 1-.296-.43 1.048 1.048 0 0 1-.05-.452c.015-.167.07-.352.167-.552a1.21 1.21 0 0 1 .312-.391c.134-.112.29-.193.468-.246.179-.052.387-.044.624.023.238.067.48.197.725.39.037.03.092.071.167.123.074.052.234.143.479.274.245.13.501.243.769.34.267.097.609.186 1.025.268.416.082.836.123 1.259.123.676 0 1.322-.095 1.939-.285.616-.19 1.062-.378 1.337-.564l.423-.279c.246-.193.487-.323.725-.39.237-.067.445-.075.624-.023.178.053.334.134.468.246.133.112.237.242.312.39z"/></svg>