<svg xmlns="http://www.w3.org/2000/svg" width="48" height="48" fill="none"><path d="M32.338 12.003c-2.007 0-3.612.803-5.219 3.166l-6.244 9.411.58-7.314c.18-2.766-1.56-5.263-4.638-5.263-2.854 0-4.638 1.918-4.817 4.37l-.98 13.47c-.224 3.345 1.516 5.264 4.28 5.264 2.765 0 4.505-2.007 5.799-3.836l6.02-9.143-.534 7.716c-.268 3.122 1.426 5.264 4.504 5.264 2.855 0 4.727-1.696 4.906-4.237l.98-13.604c.224-2.676-1.07-5.263-4.638-5.263l.001-.001z" fill="url(#a)"/><path d="m21.456 17.263-.58 7.315.223 6.69c-1.294 1.829-3.034 3.836-5.799 3.836-2.764 0-4.504-1.918-4.28-5.263L12 16.37C12.179 13.918 13.963 12 16.817 12c3.078 0 4.817 2.497 4.639 5.263z" fill="url(#b)"/><path d="M21.464 16.885c0-2.552-1.65-4.883-4.683-4.883s-4.793 2.275-4.793 4.728c0 2.631 1.974 4.683 4.74 4.683 2.764 0 4.736-1.897 4.736-4.529v.001z" fill="#fff"/><defs><linearGradient id="a" x1="22.974" y1="23.441" x2="13.326" y2="22.216" gradientUnits="userSpaceOnUse"><stop offset=".15" stop-color="#fff"/><stop offset=".62" stop-color="#fff" stop-opacity=".6"/><stop offset="1" stop-color="#fff" stop-opacity="0"/></linearGradient><linearGradient id="b" x1="14.085" y1="34.929" x2="16.703" y2="20.653" gradientUnits="userSpaceOnUse"><stop offset=".15" stop-color="#fff"/><stop offset=".62" stop-color="#fff" stop-opacity=".6"/><stop offset="1" stop-color="#fff" stop-opacity="0"/></linearGradient></defs></svg>