<svg xmlns="http://www.w3.org/2000/svg" width="20" height="20"><path d="M1.225 8.969S10.07 5.456 13.14 4.218c1.175-.494 5.162-2.077 5.162-2.077s1.842-.693 1.688.99c-.05.692-.459 3.116-.869 5.738-.612 3.71-1.277 7.766-1.277 7.766s-.103 1.139-.972 1.337c-.87.197-2.3-.693-2.557-.891-.204-.148-3.834-2.374-5.163-3.463-.358-.296-.768-.89.05-1.582a193.992 193.992 0 0 0 5.37-4.948c.612-.593 1.227-1.98-1.33-.297-3.63 2.425-7.21 4.7-7.21 4.7s-.818.494-2.352.049a109.414 109.414 0 0 1-3.323-1.037s-1.227-.742.87-1.533l-.002-.001z" fill="#fff"/></svg>