<svg xmlns="http://www.w3.org/2000/svg" width="20" height="20"><path fill="#fff" d="M11.065 2.454a3.268 3.268 0 0 0-.2-.018c-.303-.021-.933-.066-.896-.7.017-.275.143-.736.808-.736.074 0 .146.005.209.01h.022c.049.004.094.007.133.007a.36.36 0 0 0 .05-.003c.016-.003.032-.003.05-.003 4.178.137 7.8 3.831 7.747 7.904 0 .051.002.109.005.17V9.1c.014.27.028.607-.193.832-.128.13-.306.196-.53.196h-.022c-.713-.013-.725-.66-.73-.972 0-.087-.003-.17-.012-.238-.516-3.982-2.383-5.854-6.44-6.463zm5.987 11.414c.085.067.172.133.259.197.652.485 1.465 1.09 1.02 2.313C17.824 17.775 16.17 19 14.793 19h-.024a.295.295 0 0 1-.073-.01 4.465 4.465 0 0 0-.17-.04 4.235 4.235 0 0 1-.744-.214c-2.928-1.228-5.455-2.861-7.51-4.856C4.17 11.842 2.505 9.372 1.32 6.54c-.409-.98-.427-1.921-.048-2.724.392-.829 1.174-1.457 2.265-1.815.407-.142.852-.14 1.258.004.95.34 3.204 3.333 3.26 4.328.048.876-.643 1.334-1.016 1.58-.654.433-.775.965-.402 1.78.77 1.684 2.116 2.96 4 3.792.198.095.415.148.636.155.318 0 .576-.153.789-.467.481-.708 1.064-1.068 1.732-1.068.496 0 1.02.194 1.604.593l.323.22c.443.302.9.613 1.331.95zm-6.476-7.692c.172-.487.663-.499.898-.504.626-.015 1.313.303 1.882.866.569.562.902 1.267.895 1.889.02.596-.203.925-.662.978a.73.73 0 0 1-.087.005c-.381 0-.68-.301-.724-.731-.094-.924-.57-1.421-1.493-1.565-.254-.04-.534-.114-.68-.351-.1-.163-.11-.36-.03-.587zm1.046-2.809c2.75.322 4.97 2.649 4.948 5.187h-.001c0 .01 0 .023-.002.034-.007.046-.004.114-.002.186v.004c.01.26.028.803-.58.893-.062.01-.122.013-.176.013-.653 0-.69-.59-.709-.876v-.002l-.001-.02c-.005-.069-.01-.133-.019-.186-.406-2.387-1.238-3.232-3.71-3.77-.056-.012-.123-.021-.194-.031l-.016-.002c-.264-.035-.593-.08-.78-.326-.11-.146-.148-.335-.109-.559.04-.229.19-.615.754-.615.141.003.281.018.42.044.063.01.122.02.177.026z"/></svg>