<svg xmlns="http://www.w3.org/2000/svg" width="77" height="56" fill="none"><path d="M40.512 30.794c-1.89 16.48-5.827 19.608-22.308 17.718C1.726 46.62-1.4 42.684.488 26.204 2.378 9.724 6.316 6.598 22.796 8.489c16.48 1.89 19.607 5.826 17.716 22.306z" fill="url(#a)"/><path d="M73.02 18.553c-1.645 0-3.014.657-4.312 2.632l-5.177 7.808L64 22.9c.173-2.285-1.264-4.346-3.826-4.346-2.39 0-3.86 1.61-4 3.636l-.814 11.133c-.19 2.805 1.247 4.363 3.602 4.363 2.355 0 3.705-1.61 4.744-3.169l5.003-7.565-.45 6.371c-.19 2.615 1.177 4.363 3.74 4.363 2.372 0 3.896-1.403 4.051-3.515l.831-11.272c.156-2.18-.917-4.345-3.86-4.345zM53.316 32.317c0-2.546-1.94-4.19-4.502-4.52 2.39-.501 4.485-2.077 4.485-4.64 0-2.84-2.2-4.449-6.233-4.432h-8.172c-3.774 0-5.177 1.524-5.47 5.679l-.486 6.96c-.329 4.675 1.004 6.146 5.61 6.146h7.825c4.502 0 6.943-1.852 6.943-5.194zm-7.722-.502c0 1.61-1.247 2.372-3.324 2.372l-2.203-.018s.345-2.267.568-4.536h2.015c1.732 0 2.944.71 2.944 2.182zm.086-7.618c0 1.385-1.125 2.216-3.116 2.216h-1.657s.165-2.526.057-4.346h1.824c1.819 0 2.892.78 2.892 2.129z" fill="#fff"/><path d="M27.267 18.583c-1.662 0-2.992.664-4.32 2.622l-5.17 7.792.48-6.057c.147-2.29-1.293-4.357-3.841-4.357-2.364 0-3.841 1.588-3.989 3.619l-.812 11.153c-.185 2.77 1.255 4.357 3.544 4.357 2.29 0 3.73-1.662 4.801-3.176l4.985-7.57-.442 6.388c-.222 2.585 1.181 4.357 3.73 4.357 2.363 0 3.913-1.403 4.061-3.508l.813-11.263c.184-2.216-.886-4.357-3.84-4.357z" fill="url(#b)"/><path d="m18.248 22.945-.48 6.057.185 5.54c-1.072 1.514-2.512 3.175-4.801 3.175-2.29 0-3.73-1.587-3.545-4.357l.812-11.153c.148-2.03 1.625-3.619 3.989-3.619 2.548 0 3.989 2.068 3.84 4.357z" fill="url(#c)"/><path d="M18.264 22.624c0-2.112-1.366-4.043-3.877-4.043-2.512 0-3.969 1.883-3.969 3.915 0 2.178 1.635 3.877 3.924 3.877 2.29 0 3.922-1.57 3.922-3.749z" fill="#fff"/><defs><linearGradient id="a" x1="44.965" y1="73.64" x2=".021" y2="6.412" gradientUnits="userSpaceOnUse"><stop offset=".798" stop-color="#F30745"/><stop offset=".977" stop-color="#FFBCCE"/></linearGradient><linearGradient id="b" x1="19.513" y1="28.053" x2="11.525" y2="27.039" gradientUnits="userSpaceOnUse"><stop offset=".15" stop-color="#fff"/><stop offset=".62" stop-color="#fff" stop-opacity=".6"/><stop offset="1" stop-color="#fff" stop-opacity="0"/></linearGradient><linearGradient id="c" x1="12.146" y1="37.572" x2="14.313" y2="25.753" gradientUnits="userSpaceOnUse"><stop offset=".15" stop-color="#fff"/><stop offset=".62" stop-color="#fff" stop-opacity=".6"/><stop offset="1" stop-color="#fff" stop-opacity="0"/></linearGradient></defs></svg>